# xmcd CD database file
#
# Track frame offsets:
#	150
#	8207
#	14802
#	38821
#	53378
#	61140
#	66715
#	76332
#	84033
#	93856
#	104973
#	111698
#	128239
#	144398
#	159618
#	172624
#	187487
#	200799
#	209326
#	225362
#	245389
#	262471
#	273129
#	281209
#	299466
#
# Disc length: 4172 seconds
#
# Revision: 0
# Processed by: cddbd v1.5.2PL0 Copyright (c) Steve Scherf et al.
# Submitted via: CDex 1.51
#
DISCID=7c104a19
DTITLE=Lutz Gerlach - Drei Kl‰nge
DYEAR=2006
DGENRE=Jazz
TTITLE0=01 at FIRST TAKE three
TTITLE1=02 Good News
TTITLE2=03 ANOTHER TRY to start again
TTITLE3=04 Groﬂe Sehnsucht Nr. 7
TTITLE4=05 Reflexion
TTITLE5=06 Dreisilbig
TTITLE6=07 D(ein) Dur
TTITLE7=08 CH'IEN der Himmel
TTITLE8=09 TUI der See
TTITLE9=10 LI das Feuer
TTITLE10=11 CEN der Donner
TTITLE11=12 SUN der Wind
TTITLE12=13 K'AN das Wasser
TTITLE13=14 KEN der Berg
TTITLE14=15 K'UN die Erde
TTITLE15=16 T(W)O Rise
TTITLE16=17 Dreisamkeit
TTITLE17=18 Tricycle
TTITLE18=19 Song for three
TTITLE19=20 Pas de trois
TTITLE20=21 Surround
TTITLE21=22 Bea
TTITLE22=23 ‹berwiegend heiter
TTITLE23=24 Drei Regentropfen
TTITLE24=25 Groﬂe Sehnsucht Nr. 8
EXTD=YEAR: 2006
EXTT0=
EXTT1=
EXTT2=
EXTT3=
EXTT4=
EXTT5=
EXTT6=
EXTT7=
EXTT8=
EXTT9=
EXTT10=
EXTT11=
EXTT12=
EXTT13=
EXTT14=
EXTT15=
EXTT16=
EXTT17=
EXTT18=
EXTT19=
EXTT20=
EXTT21=
EXTT22=
EXTT23=
EXTT24=
PLAYORDER=
